<svg width="1754" height="1134" viewBox="0 0 1754 1134" fill="none" xmlns="http://www.w3.org/2000/svg">
<path fill-rule="evenodd" clip-rule="evenodd" d="M1753.5 0H0V1133.56H1753.5V0ZM1545.23 121.821C1531.77 100.956 1503.94 94.9533 1483.08 108.414L1269.43 246.249L1321.19 326.494L1468.6 231.397C1444.04 269.303 1421.27 311.02 1408.18 349.385C1397.07 381.925 1391.78 415.272 1401.79 442.3C1412.61 471.557 1439.23 488.557 1479.78 491.792C1520.47 495.038 1550.45 482.622 1569.53 457.573C1587.74 433.656 1593.97 400.779 1594.11 366.92C1594.38 304.614 1574.01 230.444 1553.66 176.524L1572.63 164.286L1545.23 121.821ZM1482.28 460.48C1514.7 463.066 1533.26 453.345 1544.53 438.544C1556.66 422.613 1562.57 397.932 1562.7 366.785C1562.92 314.243 1546.76 250.46 1528.8 199.97C1493.81 246.728 1455.69 307.419 1437.9 359.53C1427.41 390.296 1425.13 414.872 1431.25 431.398C1436.54 445.696 1449.72 457.882 1482.28 460.48ZM482.088 364.221L1619.52 1020.92C1619.63 1018.97 1619.22 1016.96 1618.21 1015.05L1609.79 999.226C1591.06 963.993 1563 934.583 1528.69 914.208L525.161 318.266C525.161 318.266 592.422 248.606 594.805 246.223C597.453 243.575 602.143 243.575 604.791 246.223C620.009 261.441 644.683 261.441 659.901 246.223C675.119 231.005 675.119 206.332 659.901 191.113C657.253 188.465 657.253 183.776 659.901 181.128C675.119 165.909 675.119 141.236 659.901 126.018C644.683 110.8 620.009 110.8 604.791 126.018C602.143 128.666 597.453 128.666 594.805 126.018C579.587 110.8 554.914 110.8 539.695 126.018C524.477 141.236 524.477 165.909 539.695 181.128C542.343 183.776 542.343 188.465 539.695 191.113C538.749 192.059 522.174 205.901 500.386 224.096L500.367 224.112L500.36 224.117L500.357 224.12C456.518 260.728 391.605 314.934 390.415 317.197C389.084 319.328 374.624 402.413 364.83 458.688L364.829 458.695L364.829 458.696L364.826 458.712C359.933 486.827 356.205 508.244 355.863 509.52C354.894 513.137 350.832 515.482 347.215 514.513C326.427 508.943 305.059 521.28 299.489 542.068C293.918 562.856 306.255 584.224 327.044 589.794C330.661 590.764 333.006 594.825 332.036 598.442C326.466 619.231 338.803 640.599 359.591 646.169C380.38 651.739 401.748 639.402 407.318 618.614C408.287 614.997 412.349 612.652 415.966 613.621C436.754 619.191 458.122 606.855 463.693 586.066C469.263 565.278 456.926 543.91 436.138 538.34C432.52 537.37 430.175 533.309 431.145 529.692C432.017 526.437 458.713 433.357 458.713 433.357L1476.58 1004.47C1511.38 1024 1550.88 1033.59 1590.76 1032.2L1608.67 1031.57C1610.83 1031.49 1612.78 1030.84 1614.41 1029.77L476.975 373.077L478.498 368.052L482.088 364.221ZM644.716 231.039C637.884 237.871 626.808 237.871 619.976 231.039C613.143 224.207 613.144 213.13 619.976 206.298C626.808 199.466 637.884 199.466 644.716 206.298C651.548 213.13 651.548 224.207 644.716 231.039ZM644.716 141.202C651.548 148.034 651.548 159.111 644.716 165.943C637.884 172.775 626.808 172.775 619.976 165.943C613.143 159.111 613.144 148.034 619.976 141.202C626.808 134.37 637.884 134.37 644.716 141.202ZM579.621 231.039C586.453 224.207 586.453 213.13 579.621 206.298C572.789 199.466 561.712 199.466 554.88 206.298C548.048 213.13 548.048 224.207 554.88 231.039C561.712 237.871 572.789 237.871 579.621 231.039ZM579.621 165.943C572.789 172.775 561.712 172.775 554.88 165.943C548.048 159.111 548.048 148.034 554.88 141.202C561.712 134.37 572.789 134.37 579.621 141.202C586.453 148.034 586.453 159.111 579.621 165.943ZM591.77 194.149C588.098 190.477 583.808 187.801 579.234 186.12C583.808 184.44 588.098 181.764 591.77 178.092C595.441 174.42 598.117 170.13 599.798 165.557C601.479 170.13 604.155 174.42 607.827 178.092C611.498 181.764 615.789 184.44 620.362 186.121C615.789 187.801 611.498 190.477 607.827 194.149C604.155 197.821 601.479 202.111 599.798 206.684C598.118 202.111 595.441 197.821 591.77 194.149ZM442.95 580.508C445.451 571.176 439.912 561.583 430.58 559.082C421.247 556.581 411.654 562.12 409.154 571.453C406.653 580.785 412.191 590.378 421.524 592.879C430.857 595.379 440.449 589.841 442.95 580.508ZM365.149 625.427C374.482 627.927 384.075 622.389 386.576 613.056C389.076 603.724 383.538 594.131 374.205 591.63C364.872 589.129 355.28 594.668 352.779 604C350.278 613.333 355.817 622.926 365.149 625.427ZM410.402 524.134C407.902 533.466 398.309 539.005 388.976 536.504C379.643 534.004 374.105 524.411 376.606 515.078C379.106 505.745 388.699 500.207 398.032 502.708C407.364 505.208 412.903 514.801 410.402 524.134ZM354.028 556.682C356.528 547.349 350.99 537.756 341.657 535.255C332.325 532.755 322.732 538.293 320.231 547.626C317.73 556.959 323.269 566.551 332.602 569.052C341.934 571.553 351.527 566.014 354.028 556.682ZM384.529 553.1C379.514 551.756 375.051 549.379 371.309 546.258C372.14 551.059 371.967 556.113 370.624 561.128C369.28 566.144 366.902 570.607 363.782 574.349C368.583 573.518 373.636 573.69 378.652 575.034C383.668 576.378 388.13 578.755 391.873 581.876C391.041 577.075 391.214 572.021 392.558 567.006C393.902 561.99 396.279 557.527 399.399 553.785C394.598 554.616 389.545 554.444 384.529 553.1ZM379.813 311.076L413.24 285.9L280.44 209.228C278.569 188.197 266.824 168.377 247.15 157.018C215.062 138.492 174.033 149.486 155.507 181.573C136.981 213.66 147.975 254.69 180.063 273.216C199.737 284.575 222.774 284.836 241.924 275.941L374.724 352.613L379.813 311.076ZM1256.34 355.138L1216.59 293.532L890.347 504.003L962.521 544.688L1256.34 355.138ZM764.895 645.717L736.508 629.715L342.483 883.913C318.162 850.995 290.012 832.12 276.426 840.884C261.281 850.655 269.97 891.076 295.833 931.166C321.697 971.257 354.942 995.836 370.087 986.065C383.673 977.3 378.08 943.873 358.115 908.144L764.895 645.717ZM287.564 953.659L271.932 929.428L193.389 980.099C183.691 986.356 177.417 996.733 176.383 1008.23C187.282 1012.02 199.322 1010.59 209.021 1004.33L287.564 953.659ZM1238.55 249.236C1243.4 246.105 1249.87 247.501 1253 252.354L1308.86 338.941C1311.99 343.793 1310.6 350.265 1305.74 353.395L1293.23 361.471C1288.37 364.602 1281.9 363.206 1278.77 358.353L1222.91 271.766C1219.78 266.914 1221.18 260.442 1226.03 257.312L1238.55 249.236Z" fill="#005BB2"/>
</svg>
